<svg width="81" height="72" viewBox="0 0 81 72" fill="none" xmlns="http://www.w3.org/2000/svg">
<path fill-rule="evenodd" clip-rule="evenodd" d="M74.6846 35.7701C74.6846 55.0815 59.3797 70.7364 40.5001 70.7364C21.6206 70.7364 6.31567 55.0815 6.31567 35.7701C6.31567 16.4588 21.6206 0.803894 40.5001 0.803894C59.3797 0.803894 74.6846 16.4588 74.6846 35.7701ZM61.8491 35.7701C61.8491 47.8305 52.2908 57.6073 40.5001 57.6073C28.7095 57.6073 19.1512 47.8305 19.1512 35.7701C19.1512 23.7098 28.7095 13.933 40.5001 13.933C52.2908 13.933 61.8491 23.7098 61.8491 35.7701Z" fill="white"/>
<path fill-rule="evenodd" clip-rule="evenodd" d="M5.52979 35.7701C5.52979 16.0148 21.1865 0 40.5001 0C59.8137 0 75.4704 16.0148 75.4704 35.7701C75.4704 55.5253 59.8137 71.5402 40.5001 71.5402C21.1865 71.5402 5.52979 55.5253 5.52979 35.7701ZM40.5001 1.60764C22.0546 1.60764 7.10149 16.9027 7.10149 35.7701C7.10149 54.6375 22.0546 69.9325 40.5001 69.9325C58.9457 69.9325 73.8987 54.6375 73.8987 35.7701C73.8987 16.9027 58.9457 1.60764 40.5001 1.60764ZM18.3653 35.7701C18.3653 23.2658 28.2754 13.1291 40.5001 13.1291C52.7248 13.1291 62.6349 23.2658 62.6349 35.7701C62.6349 48.2743 52.7248 58.4111 40.5001 58.4111C28.2754 58.4111 18.3653 48.2743 18.3653 35.7701ZM40.5001 14.7367C29.1434 14.7367 19.937 24.1537 19.937 35.7701C19.937 47.3865 29.1434 56.8034 40.5001 56.8034C51.8568 56.8034 61.0632 47.3865 61.0632 35.7701C61.0632 24.1537 51.8568 14.7367 40.5001 14.7367Z" fill="#132B47"/>
<path d="M40.0625 1.43082V9.30023L35.0547 6.73539L40.0625 1.43082Z" fill="#132B47"/>
<path d="M45.7857 6.73539L40.0625 9.30023V1.43082L45.7857 6.73539Z" fill="#F85F48"/>
<path d="M37.7385 12.8772L40.0625 8.9185L35.0547 6.4386L37.7385 12.8772Z" fill="#F85F48"/>
<path d="M42.3072 12.8772L45.7857 6.4386L40.0625 8.93515L42.3072 12.8772Z" fill="#132B47"/>
<path d="M28.1154 4.29242L30.7623 11.4464L25.0391 11.37L28.1154 4.29242Z" fill="#132B47"/>
<path d="M35.0546 6.86011L30.7491 11.4464L27.9006 4.29242L35.0546 6.86011Z" fill="#F85F48"/>
<path d="M29.884 15.7388L30.7623 11.5141L25.0391 11.4464L29.884 15.7388Z" fill="#F85F48"/>
<path d="M34.2694 14.308L35.0546 6.4386L30.7622 11.3268L34.2694 14.308Z" fill="#132B47"/>
<path d="M17.6267 11.4464L22.8929 16.4321L17.1697 18.6004L17.6267 11.4464Z" fill="#132B47"/>
<path d="M25.039 11.4464L22.8707 17.1696L17.885 11.9034L25.039 11.4464Z" fill="#F85F48"/>
<path d="M23.6083 21.4621L22.7503 17.1696L17.1697 19.3073L23.6083 21.4621Z" fill="#F85F48"/>
<path d="M26.4698 18.6004L24.8076 11.4464L22.8928 17.4145L26.4698 18.6004Z" fill="#132B47"/>
<path d="M10.731 22.1775L17.1696 25.309L13.0419 30.0469L10.731 22.1775Z" fill="#132B47"/>
<path d="M17.1007 18.6004L17.1696 25.039L10.731 22.064L17.1007 18.6004Z" fill="#F85F48"/>
<path d="M20.0312 29.5888L17.3945 25.0391L12.8772 30.0469L20.0312 29.5888Z" fill="#F85F48"/>
<path d="M21.4621 24.427L17.1697 18.6004L17.2404 25.039L21.4621 24.427Z" fill="#132B47"/>
<path d="M7.86938 35.7701H15.0234L12.6917 41.4933L7.86938 35.7701Z" fill="#132B47"/>
<path d="M12.6917 30.0469L15.0234 35.7701H7.86938L12.6917 30.0469Z" fill="#F85F48"/>
<path d="M19.3158 38.4261L15.3571 35.7701L12.8772 41.4933L19.3158 38.4261Z" fill="#F85F48"/>
<path d="M19.3158 33.528L12.8772 30.0469L15.3737 35.7701L19.3158 33.528Z" fill="#132B47"/>
<path d="M10.731 49.4789L17.1696 46.5011L17.1007 52.9397L10.731 49.4789Z" fill="#132B47"/>
<path d="M13.0419 41.4933L17.1696 46.2294L10.731 49.3627L13.0419 41.4933Z" fill="#F85F48"/>
<path d="M21.4621 47.4891L17.2374 46.5011L17.1697 52.9397L21.4621 47.4891Z" fill="#F85F48"/>
<path d="M20.0312 42.4093L12.8772 41.4933L17.321 46.5011L20.0312 42.4093Z" fill="#132B47"/>
<path d="M17.885 59.6367L22.8707 54.3705L25.039 60.0937L17.885 59.6367Z" fill="#132B47"/>
<path d="M17.1697 52.9397L22.8929 55.108L17.6267 60.0937L17.1697 52.9397Z" fill="#F85F48"/>
<path d="M26.4698 53.6551L22.8928 54.5131L24.6742 60.0937L26.4698 53.6551Z" fill="#F85F48"/>
<path d="M23.6083 50.7935L17.1697 52.4558L22.5409 54.3705L23.6083 50.7935Z" fill="#132B47"/>
<path d="M27.9006 67.2477L30.7475 60.0937L35.0546 64.68L27.9006 67.2477Z" fill="#132B47"/>
<path d="M25.0391 60.1702L30.7623 60.0937L28.1178 67.2477L25.0391 60.1702Z" fill="#F85F48"/>
<path d="M34.662 57.2321L30.7622 60.1325L35.0546 65.1015L34.662 57.2321Z" fill="#F85F48"/>
<path d="M30.2183 55.8013L25.0391 60.0937L30.7623 60.023L30.2183 55.8013Z" fill="#132B47"/>
<path d="M40.0625 70.1093V62.2399L45.7857 64.8048L40.0625 70.1093Z" fill="#132B47"/>
<path d="M35.0547 64.8048L40.0625 62.2399V70.1093L35.0547 64.8048Z" fill="#F85F48"/>
<path d="M42.7185 57.9475L40.0625 62.3461L45.7857 65.1015L42.7185 57.9475Z" fill="#F85F48"/>
<path d="M38.1007 57.9475L35.0547 65.1015L40.0625 62.3276L38.1007 57.9475Z" fill="#132B47"/>
<path d="M53.0559 67.2477L50.0781 60.0937L56.5167 60.1702L53.0559 67.2477Z" fill="#132B47"/>
<path d="M45.7856 64.68L50.0912 60.0937L52.9397 67.2477L45.7856 64.68Z" fill="#F85F48"/>
<path d="M51.0661 55.0859L50.0781 60.0147L56.5167 60.0937L51.0661 55.0859Z" fill="#F85F48"/>
<path d="M46.5708 57.2321L45.7856 65.1015L50.0781 60.2134L46.5708 57.2321Z" fill="#132B47"/>
<path d="M63.2708 60.0937L58.6628 55.108L63.6707 52.9397L63.2708 60.0937Z" fill="#132B47"/>
<path d="M56.5166 60.0937L58.4681 54.3705L62.9552 59.6367L56.5166 60.0937Z" fill="#F85F48"/>
<path d="M57.9475 50.0781L58.7102 54.3705L63.6707 52.2329L57.9475 50.0781Z" fill="#F85F48"/>
<path d="M54.3706 52.9397L56.3653 60.0937L58.663 54.1256L54.3706 52.9397Z" fill="#132B47"/>
<path d="M70.1093 49.3627L63.6707 46.2311L67.7983 41.4933L70.1093 49.3627Z" fill="#132B47"/>
<path d="M63.7395 52.9397L63.6707 46.5011L70.1093 49.4761L63.7395 52.9397Z" fill="#F85F48"/>
<path d="M60.8091 41.9513L63.4458 46.5011L67.9631 41.4933L60.8091 41.9513Z" fill="#F85F48"/>
<path d="M59.3784 47.1131L63.6708 52.9397L63.6001 46.5011L59.3784 47.1131Z" fill="#132B47"/>
<path d="M72.9709 35.7701H65.8169L68.1486 30.0469L72.9709 35.7701Z" fill="#132B47"/>
<path d="M68.1486 41.4933L65.8169 35.7701H72.9709L68.1486 41.4933Z" fill="#F85F48"/>
<path d="M61.5244 33.1141L65.4831 35.7701L67.963 30.0469L61.5244 33.1141Z" fill="#F85F48"/>
<path d="M61.5244 38.0148L67.963 41.4933L65.4665 35.7701L61.5244 38.0148Z" fill="#132B47"/>
<path d="M70.1093 22.0613L63.6707 25.039L63.7395 18.6004L70.1093 22.0613Z" fill="#132B47"/>
<path d="M67.7983 30.0469L63.6707 25.3108L70.1093 22.1775L67.7983 30.0469Z" fill="#F85F48"/>
<path d="M59.3784 24.051L63.6031 25.039L63.6708 18.6004L59.3784 24.051Z" fill="#F85F48"/>
<path d="M60.8091 29.1308L67.9631 30.0469L63.5193 25.0391L60.8091 29.1308Z" fill="#132B47"/>
<path d="M62.9552 11.9034L58.4681 17.1696L56.5166 11.4464L62.9552 11.9034Z" fill="#132B47"/>
<path d="M63.6707 18.6004L58.6628 16.4321L63.2708 11.4464L63.6707 18.6004Z" fill="#F85F48"/>
<path d="M54.3706 17.885L58.663 17.0271L56.5254 11.4464L54.3706 17.885Z" fill="#F85F48"/>
<path d="M57.2322 20.7467L63.6708 19.0844L58.2995 17.1696L57.2322 20.7467Z" fill="#132B47"/>
<path d="M52.9397 4.29242L50.0928 11.4464L45.7856 6.86011L52.9397 4.29242Z" fill="#132B47"/>
<path d="M56.5167 11.37L50.0781 11.4464L53.0532 4.29242L56.5167 11.37Z" fill="#F85F48"/>
<path d="M46.1782 13.5926L50.0781 10.9559L45.7856 6.4386L46.1782 13.5926Z" fill="#F85F48"/>
<path d="M50.6901 15.7388L56.5167 11.4464L50.0781 11.5172L50.6901 15.7388Z" fill="#132B47"/>
<path d="M0 26.0704C0 24.7521 1.01087 23.6834 2.25784 23.6834H78.7422C79.9891 23.6834 81 24.7521 81 26.0704V48.4487C81 49.767 79.9891 50.8357 78.7422 50.8357H2.25784C1.01087 50.8357 0 49.767 0 48.4487V26.0704Z" fill="white"/>
<path fill-rule="evenodd" clip-rule="evenodd" d="M78.7422 25.4737H2.25784C1.9461 25.4737 1.69338 25.7408 1.69338 26.0704V48.4487C1.69338 48.7782 1.9461 49.0454 2.25784 49.0454H78.7422C79.0539 49.0454 79.3066 48.7782 79.3066 48.4487V26.0704C79.3066 25.7408 79.0539 25.4737 78.7422 25.4737ZM2.25784 23.6834C1.01087 23.6834 0 24.7521 0 26.0704V48.4487C0 49.767 1.01087 50.8357 2.25784 50.8357H78.7422C79.9891 50.8357 81 49.767 81 48.4487V26.0704C81 24.7521 79.9891 23.6834 78.7422 23.6834H2.25784Z" fill="#132B47"/>
<path d="M3.6377 47.7916H6.52286V38.7329H8.76688V47.7916H11.6521V26.985H8.76688V35.5907H6.52286V26.985H3.6377V47.7916Z" fill="#132B47"/>
<path d="M12.9846 47.7916H15.7897L16.324 43.5453H19.1023L19.6366 47.7916H22.4416L19.4763 26.985H15.95L12.9846 47.7916ZM16.7247 40.3182L17.5528 33.7507L17.633 33.2128H17.7933L17.8734 33.7507L18.7016 40.3182H16.7247Z" fill="#132B47"/>
<path d="M27.4378 48.018C28.5687 48.018 29.4904 47.5981 30.2028 46.7583C30.9241 45.9185 31.2847 44.8381 31.2847 43.517V40.6579H28.5865V43.517C28.5865 44.5361 28.2214 45.0457 27.4913 45.0457C27.2063 45.0457 26.9659 44.9088 26.77 44.6352C26.5741 44.3521 26.4761 43.9794 26.4761 43.517V31.2595C26.4761 30.7877 26.5651 30.415 26.7432 30.1413C26.9302 29.8677 27.1796 29.7309 27.4913 29.7309C28.2214 29.7309 28.5865 30.2404 28.5865 31.2595V34.1187H31.2847V31.2595C31.2847 29.9102 30.9285 28.825 30.2161 28.0041C29.5126 27.1737 28.5865 26.7585 27.4378 26.7585C26.2713 26.7585 25.3363 27.169 24.6328 27.9899C23.9382 28.8014 23.5909 29.8913 23.5909 31.2595V43.517C23.5909 44.9136 23.9471 46.0129 24.6595 46.8149C25.3719 47.617 26.298 48.018 27.4378 48.018Z" fill="#132B47"/>
<path d="M33.0132 47.7916H35.8984V40.4314L36.5663 38.7329L36.7265 38.3083H36.8067L36.8868 38.7329L38.8904 47.7916H41.6954L38.7034 33.8356L41.3482 26.985H38.5431L36.1388 33.9205L36.0053 34.2602H35.8984V26.985H33.0132V47.7916Z" fill="#132B47"/>
<path d="M46.8513 48.018C47.9912 48.018 48.9084 47.617 49.6029 46.8149C50.2975 46.0034 50.6626 44.9041 50.6982 43.517V26.985H47.8131V43.517C47.8131 43.9888 47.7285 44.3615 47.5593 44.6352C47.3901 44.9088 47.1541 45.0457 46.8513 45.0457C46.5486 45.0457 46.3126 44.9088 46.1434 44.6352C45.9742 44.3615 45.8896 43.9888 45.8896 43.517V26.985H43.0045V43.517C43.0579 44.9136 43.4274 46.0129 44.1131 46.8149C44.7988 47.617 45.7115 48.018 46.8513 48.018Z" fill="#132B47"/>
<path d="M52.8143 47.7916H59.5197V44.9607H55.6995V26.985H52.8143V47.7916Z" fill="#132B47"/>
<path d="M64.5132 48.018C65.653 48.018 66.5702 47.617 67.2648 46.8149C67.9594 46.0034 68.3245 44.9041 68.3601 43.517V26.985H65.4749V43.517C65.4749 43.9888 65.3903 44.3615 65.2211 44.6352C65.0519 44.9088 64.8159 45.0457 64.5132 45.0457C64.2104 45.0457 63.9744 44.9088 63.8053 44.6352C63.6361 44.3615 63.5515 43.9888 63.5515 43.517V26.985H60.6663V43.517C60.7197 44.9136 61.0893 46.0129 61.7749 46.8149C62.4606 47.617 63.3734 48.018 64.5132 48.018Z" fill="#132B47"/>
<path d="M74.0826 48.018C75.3916 48.018 76.3845 47.584 77.0613 46.7158C77.747 45.8477 78.0898 44.5833 78.0898 42.9225C78.0898 42.0072 77.885 41.0495 77.4754 40.0492C77.0657 39.049 76.3712 37.8176 75.3916 36.355C74.5279 35.0623 73.9312 34.0668 73.6018 33.3685C73.2812 32.6702 73.1209 32.0427 73.1209 31.486C73.1209 30.2121 73.4504 29.5705 74.1093 29.561C74.8751 29.5422 75.2581 30.5424 75.2581 32.5617L78.0898 32.2786C78.0898 30.4858 77.7381 29.1128 77.0346 28.1598C76.34 27.1973 75.3471 26.7302 74.0559 26.7585C72.9428 26.7774 72.0345 27.2397 71.331 28.1456C70.6364 29.042 70.2892 30.2027 70.2892 31.6275C70.2892 33.2034 71.0639 35.2085 72.6133 37.643C73.2188 38.5867 73.6953 39.351 74.0425 39.936C74.3987 40.5211 74.6614 40.9976 74.8306 41.3656C75.0087 41.7242 75.1245 42.0403 75.1779 42.3139C75.2313 42.5876 75.2581 42.8848 75.2581 43.2056C75.2581 44.5455 74.8662 45.2155 74.0826 45.2155C73.6107 45.2155 73.2634 44.9371 73.0407 44.3804C72.827 43.8142 72.7202 42.9131 72.7202 41.677L69.8884 41.9601C69.7549 45.9987 71.1529 48.018 74.0826 48.018Z" fill="#132B47"/>
</svg>
